<?xml version="1.0" encoding="UTF-8"?>
<svg version="1.1" xmlns="http://www.w3.org/2000/svg" width="200" height="200">
<path d="M0 0 C8.25 0 16.5 0 25 0 C25.55461914 1.63880127 26.10923828 3.27760254 26.68066406 4.96606445 C28.52763329 10.42257035 30.37575194 15.87868621 32.22462845 21.33454609 C33.34392089 24.63760721 34.46277273 27.94081611 35.58056641 31.24438477 C36.870053 35.05531397 38.1615479 38.86556003 39.453125 42.67578125 C40.04556 44.4280175 40.04556 44.4280175 40.64996338 46.21565247 C43.01184032 53.17734453 45.45474625 60.10319215 48 67 C51.50246095 58.8769349 54.58635289 50.69249749 57.390625 42.3046875 C57.9757486 40.572686 57.9757486 40.572686 58.57269287 38.80569458 C59.80245457 35.16346117 61.02652592 31.51934978 62.25 27.875 C63.48874386 24.19528686 64.7286901 20.51598512 65.97015381 16.83718872 C66.73876136 14.5585601 67.50562263 12.27934155 68.27056885 9.9994812 C68.61472839 8.97726471 68.95888794 7.95504822 69.31347656 6.90185547 C69.61594299 6.00095184 69.91840942 5.10004822 70.2300415 4.17184448 C71 2 71 2 72 0 C79.92 0 87.84 0 96 0 C96 31.02 96 62.04 96 94 C90.06 94 84.12 94 78 94 C77.67 74.2 77.34 54.4 77 34 C71.21015819 50.75253394 71.21015819 50.75253394 65.42260742 67.50585938 C64.69197698 69.6185181 63.96126922 71.73115009 63.23046875 73.84375 C62.85716431 74.9255957 62.48385986 76.00744141 62.09924316 77.12207031 C60.14126265 82.77889055 58.1328898 88.40669562 56 94 C50.72 94 45.44 94 40 94 C37.01823366 86.68701181 34.28489131 79.31914407 31.671875 71.8671875 C31.32205566 70.87468994 30.97223633 69.88219238 30.61181641 68.85961914 C29.32223283 65.19889287 28.03632483 61.53687262 26.75 57.875 C23.8625 49.66625 20.975 41.4575 18 33 C17.67 53.13 17.34 73.26 17 94 C11.39 94 5.78 94 0 94 C0 62.98 0 31.96 0 0 Z " fill="#f99f99" transform="translate(12,48)"/>
<path d="M0 0 C20.46 0 40.92 0 62 0 C62 5.28 62 10.56 62 16 C47.81 16 33.62 16 19 16 C19 22.93 19 29.86 19 37 C31.54 37 44.08 37 57 37 C57 42.28 57 47.56 57 53 C44.46 53 31.92 53 19 53 C19 60.92 19 68.84 19 77 C33.52 77 48.04 77 63 77 C63 82.61 63 88.22 63 94 C42.21 94 21.42 94 0 94 C0 62.98 0 31.96 0 0 Z " fill="#f99f99" transform="translate(132,48)"/>
</svg>
